<?xml version="1.0" encoding="UTF-8" standalone="no"?>
<!-- Created with Inkscape (http://www.inkscape.org/) -->

<svg
   width="113.58926mm"
   height="100.62573mm"
   viewBox="0 0 113.58926 100.62573"
   version="1.1"
   id="svg9740"
   sodipodi:docname="logo2.svg"
   inkscape:version="1.1.2 (0a00cf5339, 2022-02-04)"
   xmlns:inkscape="http://www.inkscape.org/namespaces/inkscape"
   xmlns:sodipodi="http://sodipodi.sourceforge.net/DTD/sodipodi-0.dtd"
   xmlns="http://www.w3.org/2000/svg"
   xmlns:svg="http://www.w3.org/2000/svg">
  <sodipodi:namedview
     id="namedview19"
     pagecolor="#ffffff"
     bordercolor="#666666"
     borderopacity="1.0"
     inkscape:pageshadow="2"
     inkscape:pageopacity="0.0"
     inkscape:pagecheckerboard="true"
     inkscape:document-units="mm"
     showgrid="false"
     fit-margin-top="0"
     fit-margin-left="0"
     fit-margin-right="0"
     fit-margin-bottom="0"
     inkscape:zoom="1.0554405"
     inkscape:cx="-9.4747167"
     inkscape:cy="225.02452"
     inkscape:window-width="1920"
     inkscape:window-height="1009"
     inkscape:window-x="0"
     inkscape:window-y="34"
     inkscape:window-maximized="1"
     inkscape:current-layer="layer4" />
  <defs
     id="defs9737">
    <rect
       x="891.38898"
       y="4342.6509"
       width="4093.6521"
       height="884.54315"
       id="rect8232" />
    <rect
       x="891.38898"
       y="4342.6509"
       width="4093.6521"
       height="884.54315"
       id="rect8232-3" />
  </defs>
  <g
     inkscape:groupmode="layer"
     id="layer2"
     inkscape:label="Layer 1"
     transform="translate(-118.06622,-2.2884967)"
     style="display:inline" />
  <g
     inkscape:groupmode="layer"
     id="layer4"
     inkscape:label="Layer 2"
     transform="translate(-118.06622,-2.2884967)">
    <g
       id="layer3"
       transform="matrix(0.35277777,0,0,-0.35277777,-331.15766,861.32529)"
       style="display:inline;fill:#c9ab81;fill-opacity:1">
      <text
         xml:space="preserve"
         id="text8230-6"
         style="font-style:normal;font-variant:normal;font-weight:normal;font-stretch:normal;font-size:289.934px;line-height:1.25;font-family:Cinzel;-inkscape-font-specification:Cinzel;white-space:pre;shape-inside:url(#rect8232-3);display:inline;fill:#c9ab81;fill-opacity:1;stroke:none"
         transform="matrix(0.165555,0,0,-0.165555,1123.6567,2910.1999)"><tspan
           x="891.38867"
           y="4588.8147"
           id="tspan17035">Nature Gifts</tspan></text>
    </g>
    <path
       id="path2723-5"
       style="display:inline;fill:#c9ab81;fill-opacity:1;fill-rule:nonzero;stroke:none;stroke-width:0.00300295"
       d="M 196.11637,2.2884967 C 195.00018,7.6904767 187.9636,13.233357 184.36876,18.5645 l 0.0208,-0.01023 c -0.0226,0.0187 -0.0474,0.03694 -0.0697,0.05581 1.04087,-3.7967 1.29353,-6.947465 -1.26711,-9.2113463 1.49458,4.7149463 -0.34967,9.0128033 -2.00247,13.5712913 0.0279,-0.03316 0.0664,-0.06936 0.0946,-0.102835 -0.0335,0.100718 -0.12093,0.187749 -0.14883,0.289878 -0.47901,1.75387 0.21755,3.315863 2.72076,4.570271 -0.79061,0.170109 -1.40698,0.354083 -2.02572,0.689363 l -0.0123,-0.0314 c -11.81358,7.888113 -1.25293,-17.219644 -6.36394,-20.2742413 1.18964,3.2272823 0.15128,7.9111833 -0.57876,12.3450003 -0.99057,-5.19116 -1.86567,-10.9508933 -4.44574,-11.5827533 2.81979,3.6963003 2.45554,11.2364663 3.85974,16.4703133 l 0.006,-0.02434 c 0,0.02646 -0.004,0.05433 -0.004,0.08061 -1.84006,-2.761016 -3.7048,-4.663299 -6.56029,-4.285545 3.82545,1.655516 5.5402,5.204813 7.52665,8.776194 -0.006,-0.03538 -0.007,-0.07899 -0.013,-0.114724 0.0452,0.07631 0.0522,0.179141 0.10128,0.25273 0.58149,0.870832 1.42036,1.32528 2.58227,1.250562 -0.62191,0.261162 -1.28429,0.803134 -1.28778,0.804086 l -0.0377,0.0099 -0.0367,0.01411 c -2.76811,1.045633 -0.74828,3.698204 -0.7426,3.705683 l 0.045,0.05944 0.0236,0.02434 c 1.34112,1.340837 5.93217,1.008239 7.55615,0.843385 4.07261,10.447549 -16.3407,7.358839 -20.46284,7.776281 v 0 c -1.76996,0.147426 -3.06645,0.591044 -4.0349,1.230912 -0.45286,-0.393594 -1.02714,-0.654226 -1.67432,-0.654226 -1.12126,0 -2.07532,0.715468 -2.43085,1.715135 0.15166,-0.02787 0.3077,-0.04237 0.46715,-0.04237 0.82349,0 1.52446,0.410669 1.99676,1.011308 -1.06458,2.065303 -1.01847,4.751141 -0.85005,7.325114 0.13423,2.054013 0.25982,3.970937 -0.35761,5.029165 l -0.0212,0.03877 c -1.44114,2.845576 -5.67574,4.509664 -5.68802,4.514426 l -0.59997,0.239254 0.13589,0.626357 c 0.99279,4.583077 -3.41069,14.961588 -3.42512,14.991327 l -0.36276,0.75498 0.78857,0.286808 c 1.27324,0.462774 1.27384,1.947615 1.27384,1.951813 l 0.008,0.821655 3.45147,-0.05994 c 0.23996,-1.348599 -0.0187,-2.340292 -1.1994,-3.442688 0.0233,-7.178251 3.40649,-12.027393 4.18426,-13.047803 5.13852,-1.161732 8.61388,-3.94335 11.13832,-6.370108 -1.3008,2.416704 -3.86098,4.268364 -3.87004,4.274643 l -0.53072,0.367948 0.27284,0.579825 c 1.99757,4.242576 0.0391,15.344916 0.0314,15.377336 l -0.18398,0.816998 0.83252,0.102341 c 1.0051,0.123402 1.44569,0.962766 1.60454,1.380808 h 3.60444 c -0.10509,-1.257971 -0.59976,-2.116667 -1.92857,-2.885123 -1.59035,-7.000169 0.61634,-12.485405 1.14516,-13.654475 4.12728,-1.988679 6.96658,-5.175638 8.93896,-7.913723 1.2941,0.03842 2.26543,-0.01164 3.3497,-0.179811 0.32134,3.455494 -0.52772,8.932228 -0.53072,8.951384 l -0.0187,0.114688 0.0201,0.124566 c 0.41469,2.586143 -1.24711,12.692062 -1.25162,12.721201 l -0.0987,0.600463 c 1.3675,0.545042 1.45429,0.899795 1.53476,2.12083 h 3.3171 l 0.0134,-0.18087 c 0.14926,-1.987373 -0.75872,-3.121307 -1.22626,-3.567253 -1.19461,-6.705565 1.92155,-11.842856 1.92906,-11.858166 l 0.0749,-0.148837 0.006,-0.166935 c 0.0768,-2.506556 0.56822,-4.682842 1.18957,-6.744793 0.17021,3.051104 0.32815,6.879978 0.32713,6.894653 l -0.008,0.115747 0.0314,0.122484 c 0.65345,2.536296 -0.0615,12.752529 -0.0635,12.781668 l -0.0424,0.607166 c 1.50089,0.441431 1.5416,0.803345 1.76322,2.206625 l 3.27578,0.05736 -0.0145,-0.783942 c -0.036,-1.992771 -1.04566,-3.03777 -1.55289,-3.438067 -1.81257,-6.565617 0.8128,-11.970384 0.81908,-11.98633 l 0.0605,-0.15501 -0.01,-0.166406 c -0.93091,-14.893748 11.47244,-21.338082 1.45161,-37.271112 3.21733,-0.849842 2.65229,-4.151524 2.65046,-4.162037 l -0.11775,-0.737422 -0.73586,0.103893 c -0.47491,0.06689 -0.55227,0.321098 -0.96788,0.451626 -0.0925,-0.75191 -0.32766,-1.344048 -0.32971,-1.348246 l -0.32402,-0.672818 -0.67543,0.309563 c -1.48121,0.678956 -2.47558,1.674283 -3.13623,2.495973 -12.32073,-4.672859 15.63038,-14.206361 14.43584,-20.8974623 -1.96465,3.576708 -6.9669,6.2918273 -11.50578,9.0883323 3.87827,-4.927036 8.35474,-10.1930913 6.91276,-12.9955573 z m 2.80398,0.502285 c -0.73843,0.600005 -1.186,1.535536 -1.12296,2.557463 0.0634,1.021891 0.62251,1.89484 1.42938,2.399347 0.73812,-0.600004 1.18597,-1.535571 1.12293,-2.557462 -0.0634,-1.021927 -0.62276,-1.895158 -1.42935,-2.399348 z m -8.52971,1.801425 c -0.67691,0.668443 -1.03187,1.643027 -0.86974,2.654088 0.16158,1.010814 0.80307,1.825766 1.65471,2.249487 0.67684,-0.668443 1.03208,-1.64278 0.8702,-2.653594 -0.16186,-1.011096 -0.80353,-1.82626 -1.65517,-2.249981 z m -17.64185,2.667035 c -0.19957,0.0127 -0.39744,0.04893 -0.5891,0.107456 -0.0268,0.801511 0.32067,1.603445 1.00563,2.128061 0.68498,0.5246163 1.55024,0.6517573 2.31718,0.417548 0.0265,-0.801476 -0.3217,-1.603657 -1.00665,-2.128555 -0.51375,-0.393453 -1.12829,-0.563104 -1.72706,-0.52451 z m 7.04663,1.382853 c -0.79971,-0.06188 -1.61579,0.250296 -2.17043,0.911578 -0.55432,0.6612473 -0.71942,1.5194143 -0.51883,2.2959843 0.79939,0.06156 1.61608,-0.250014 2.1704,-0.911578 0.55435,-0.661247 0.71913,-1.5197313 0.51886,-2.2959843 z m 7.62071,0.46923 c -0.79248,0.526415 -1.32758,1.4149923 -1.36271,2.4380833 -0.0349,1.023408 0.43804,1.946169 1.1927,2.52543 0.79248,-0.526415 1.32789,-1.414674 1.36271,-2.438083 0.0353,-1.023126 -0.43804,-1.9461693 -1.1927,-2.5254303 z m 13.79967,0.276472 c -1.024,0.01799 -1.92098,0.538621 -2.4603,1.3223883 0.56695,0.76394 1.48156,1.252572 2.50528,1.234545 1.02369,-0.01799 1.92046,-0.538938 2.45978,-1.322387 -0.56666,-0.7642583 -1.48103,-1.2528553 -2.50476,-1.2345463 z m -21.48966,3.3775653 c -0.32851,0.892775 -0.23591,1.925391 0.34004,2.771917 0.57626,0.846243 1.50329,1.311627 2.45463,1.333253 0.32854,-0.892775 0.23544,-1.925391 -0.34054,-2.771916 -0.57626,-0.846527 -1.5028,-1.311347 -2.45413,-1.333254 z m -9.96009,0.833015 c -0.40241,-0.02928 -0.80539,0.0368 -1.17566,0.190711 0.0514,0.799959 0.47473,1.564676 1.20717,2.020535 0.73272,0.455859 1.6056,0.498475 2.34611,0.190676 -0.0511,-0.799994 -0.47445,-1.56471 -1.20717,-2.020534 -0.36632,-0.22793 -0.76807,-0.352214 -1.17045,-0.381388 z m 0.65162,4.530478 c -0.19988,-0.0064 -0.39994,0.01058 -0.59634,0.05066 -0.10329,0.795161 0.16585,1.626834 0.79739,2.214844 0.63151,0.587975 1.48043,0.796431 2.266,0.636623 0.10332,-0.795161 -0.16584,-1.626341 -0.79739,-2.214316 -0.47385,-0.44076 -1.06994,-0.668902 -1.66966,-0.687811 z m 19.34923,0.482141 c -0.24451,-0.0134 -0.49435,0.0035 -0.74571,0.05115 -1.00538,0.19371 -1.79976,0.860425 -2.19674,1.724942 0.68975,0.655567 1.67453,0.979699 2.67994,0.786024 1.00539,-0.193675 1.79977,-0.860425 2.19675,-1.724977 -0.51735,-0.491631 -1.20075,-0.796855 -1.93424,-0.837142 z m -11.00141,2.556439 c -0.7982,0.07659 -1.54856,0.524193 -1.98127,1.270706 -0.43244,0.74683 -0.44771,1.620449 -0.11677,2.35077 0.79787,-0.07627 1.54855,-0.523875 1.98127,-1.270741 0.43271,-0.746513 0.44739,-1.620097 0.11677,-2.350735 z m -8.66613,3.099541 c -0.85707,-0.101212 -1.66543,0.231458 -2.20504,0.82423 0.38647,0.702698 1.09509,1.215037 1.95182,1.316214 0.85707,0.101494 1.66542,-0.231458 2.20503,-0.824265 -0.38647,-0.702663 -1.09509,-1.214649 -1.95181,-1.316179 z m 15.04869,13.040535 c 0.22793,1.670261 0.048,3.031842 -0.44182,4.140835 v 0 c 0.49008,-1.108675 0.67056,-2.470256 0.44235,-4.140835 z m -15.41819,14.858048 -2.23397,2.65564 c -0.004,0.0035 -0.005,0.006 -0.007,0.0092 0.004,-0.0035 0.004,-0.006 0.007,-0.0092 z M 153.66468,66.43288 c 0,0 0,0 0,0 -0.0198,0.02399 -0.0332,0.06526 -0.0527,0.08992 0.0194,-0.02434 0.0328,-0.06629 0.0522,-0.08992 z" />
  </g>
</svg>
