<?xml version="1.0" encoding="UTF-8" standalone="no"?>
<!-- Created with Inkscape (http://www.inkscape.org/) -->

<svg
   width="107.03606mm"
   height="102.78094mm"
   viewBox="0 0 107.03606 102.78095"
   version="1.1"
   id="svg16635"
   xmlns="http://www.w3.org/2000/svg"
   xmlns:svg="http://www.w3.org/2000/svg">
  <defs
     id="defs16632">
    <rect
       x="891.38898"
       y="4342.6509"
       width="4093.6521"
       height="884.54315"
       id="rect8232" />
    <rect
       x="891.38898"
       y="4342.6509"
       width="4093.6521"
       height="884.54315"
       id="rect8232-3" />
  </defs>
  <g
     id="layer1"
     transform="translate(-22.869761,-73.94335)">
    <text
       xml:space="preserve"
       id="text8230"
       style="font-style:normal;font-variant:normal;font-weight:normal;font-stretch:normal;font-size:289.934px;line-height:1.25;font-family:Cinzel;-inkscape-font-specification:Cinzel;white-space:pre;shape-inside:url(#rect8232-3);display:inline;fill:#ffffff;fill-opacity:1;stroke:none"
       transform="matrix(0.05840412,0,0,0.05840412,-30.20701,-91.518451)"><tspan
         x="891.38867"
         y="4588.8147"
         id="tspan20662">Forest Gifts</tspan></text>
    <path
       id="path2723"
       style="display:inline;fill:#ffffff;fill-opacity:1;fill-rule:nonzero;stroke:none;stroke-width:0.00300295"
       d="m 97.643145,73.94335 c -1.11619,5.40198 -8.15276,10.94486 -11.7476,16.27601 l 0.0208,-0.0102 c -0.0226,0.0187 -0.0474,0.0369 -0.0697,0.0558 1.04087,-3.7967 1.29353,-6.94747 -1.26711,-9.21135 1.49458,4.71495 -0.34968,9.0128 -2.00247,13.57129 0.0279,-0.0332 0.0664,-0.0694 0.0946,-0.10283 -0.0335,0.10071 -0.12094,0.18774 -0.14884,0.28987 -0.479,1.75387 0.21756,3.31587 2.72076,4.57027 -0.79061,0.17011 -1.40698,0.35409 -2.02572,0.68937 l -0.0124,-0.0314 c -11.81357,7.88811 -1.25292,-17.21965 -6.36393,-20.27424 1.18964,3.22728 0.15127,7.91118 -0.57877,12.345 -0.99056,-5.19116 -1.86566,-10.9509 -4.44574,-11.58276 2.81979,3.6963 2.45555,11.23647 3.85974,16.47032 l 0.006,-0.0243 c 0,0.0265 -0.004,0.0543 -0.004,0.0806 -1.84005,-2.76101 -3.7048,-4.6633 -6.56029,-4.28554 3.82545,1.65551 5.5402,5.20481 7.52666,8.77619 -0.006,-0.0354 -0.007,-0.079 -0.0131,-0.11472 0.0452,0.0763 0.0522,0.17914 0.10129,0.25273 0.58148,0.87083 1.42035,1.32528 2.58226,1.25056 -0.62191,0.26116 -1.28429,0.80313 -1.28778,0.80409 l -0.0377,0.01 -0.0367,0.0141 c -2.76811,1.04563 -0.74828,3.6982 -0.7426,3.70568 l 0.045,0.0594 0.0236,0.0243 c 1.34112,1.34084 5.93217,1.00824 7.55614,0.84339 4.07261,10.44755 -16.3407,7.35884 -20.46284,7.77628 v 0 c -1.76995,0.14743 -3.06645,0.59104 -4.03489,1.23091 -0.45286,-0.39359 -1.02715,-0.65422 -1.67432,-0.65422 -1.12127,0 -2.07532,0.71547 -2.43085,1.71513 0.15166,-0.0279 0.30769,-0.0424 0.46715,-0.0424 0.82349,0 1.52446,0.41067 1.99676,1.01131 -1.06458,2.0653 -1.01847,4.75114 -0.85006,7.32511 0.13423,2.05402 0.25982,3.97094 -0.35761,5.02917 l -0.0212,0.0388 c -1.44113,2.84557 -5.67573,4.50966 -5.68801,4.51443 l -0.59997,0.23925 0.13589,0.62636 c 0.99279,4.58307 -3.41069,14.96158 -3.42512,14.99132 l -0.36276,0.75498 0.78857,0.28681 c 1.27324,0.46277 1.27384,1.94762 1.27384,1.95181 l 0.008,0.82166 3.45147,-0.0599 c 0.23996,-1.3486 -0.0187,-2.34029 -1.19941,-3.44269 0.0233,-7.17825 3.40649,-12.02739 4.18426,-13.0478 5.13853,-1.16173 8.61388,-3.94335 11.13832,-6.37011 -1.30079,2.41671 -3.86097,4.26837 -3.87004,4.27465 l -0.53072,0.36794 0.27284,0.57983 c 1.99757,4.24258 0.0391,15.34492 0.0314,15.37734 l -0.18398,0.81699 0.83252,0.10234 c 1.0051,0.12341 1.44569,0.96277 1.60454,1.38081 h 3.60444 c -0.10509,-1.25797 -0.59976,-2.11666 -1.92857,-2.88512 -1.59035,-7.00017 0.61634,-12.48541 1.14516,-13.65448 4.12728,-1.98867 6.96658,-5.17563 8.93896,-7.91372 1.2941,0.0384 2.26543,-0.0116 3.3497,-0.17981 0.32134,3.45549 -0.52772,8.93223 -0.53072,8.95138 l -0.0187,0.11469 0.0201,0.12457 c 0.41469,2.58614 -1.24711,12.69206 -1.25162,12.7212 l -0.0987,0.60046 c 1.3675,0.54504 1.45429,0.8998 1.53476,2.12083 h 3.31709 l 0.0134,-0.18087 c 0.14926,-1.98737 -0.75872,-3.1213 -1.22626,-3.56725 -1.19461,-6.70557 1.92155,-11.84286 1.92906,-11.85817 l 0.0749,-0.14883 0.006,-0.16694 c 0.0768,-2.50656 0.56822,-4.68284 1.18957,-6.74479 0.17021,3.0511 0.32815,6.87998 0.32713,6.89465 l -0.008,0.11575 0.0314,0.12248 c 0.65345,2.5363 -0.0615,12.75253 -0.0635,12.78167 l -0.0424,0.60717 c 1.5009,0.44143 1.54161,0.80334 1.76322,2.20662 l 3.27579,0.0574 -0.0145,-0.78394 c -0.036,-1.99277 -1.04567,-3.03777 -1.5529,-3.43807 -1.81257,-6.56561 0.8128,-11.97038 0.81908,-11.98633 l 0.0605,-0.15501 -0.01,-0.1664 c -0.93091,-14.89375 11.472435,-21.33808 1.45161,-37.27112 3.21733,-0.84984 2.65229,-4.15152 2.65045,-4.16203 l -0.11783,-0.73741 -0.73586,0.10389 c -0.4749,0.0669 -0.55227,0.3211 -0.96788,0.45163 -0.0925,-0.75191 -0.32766,-1.34405 -0.3297,-1.34825 l -0.32403,-0.67282 -0.67543,0.30956 c -1.48121,0.67896 -2.47558,1.67429 -3.13623,2.49598 C 75.478085,94.0768 103.4292,84.5433 102.23466,77.8522 c -1.96466,3.5767 -6.966905,6.29182 -11.505775,9.08833 3.87826,-4.92704 8.35473,-10.19309 6.91275,-12.99556 z m 2.803975,0.50229 c -0.738425,0.6 -1.185995,1.53554 -1.122955,2.55746 0.0634,1.02189 0.62251,1.89484 1.429385,2.39935 0.73811,-0.60001 1.18597,-1.53557 1.12292,-2.55746 -0.0634,-1.02193 -0.62275,-1.89516 -1.42935,-2.39935 z m -8.529695,1.80142 c -0.67691,0.66845 -1.03188,1.64303 -0.86974,2.65409 0.16157,1.01082 0.80306,1.82577 1.6547,2.24949 0.67684,-0.66844 1.03209,-1.64278 0.8702,-2.6536 -0.16185,-1.01109 -0.80352,-1.82625 -1.65516,-2.24998 z m -17.64185,2.66704 c -0.19957,0.0127 -0.39744,0.0489 -0.58911,0.10745 -0.0268,0.80152 0.32068,1.60345 1.00563,2.12807 0.68499,0.52461 1.55025,0.65175 2.31719,0.41754 0.0265,-0.80147 -0.3217,-1.60365 -1.00666,-2.12855 -0.51375,-0.39345 -1.12829,-0.56311 -1.72705,-0.52451 z m 7.04663,1.38285 c -0.79972,-0.0619 -1.6158,0.2503 -2.17043,0.91158 -0.55432,0.66125 -0.71942,1.51941 -0.51884,2.29598 0.7994,0.0616 1.61608,-0.25001 2.1704,-0.91157 0.55435,-0.66125 0.71914,-1.51974 0.51887,-2.29599 z m 7.6207,0.46923 c -0.79248,0.52642 -1.32757,1.41499 -1.36271,2.43808 -0.0349,1.02341 0.43804,1.94617 1.19271,2.52543 0.79248,-0.52641 1.32789,-1.41467 1.36271,-2.43808 0.0353,-1.02312 -0.43805,-1.94617 -1.19271,-2.52543 z m 13.799675,0.27647 c -1.02401,0.018 -1.92098,0.53863 -2.46031,1.32239 0.56695,0.76394 1.48156,1.25257 2.50529,1.23455 1.02369,-0.018 1.92045,-0.53894 2.45978,-1.32239 -0.56667,-0.76426 -1.48104,-1.25286 -2.50476,-1.23455 z m -21.489665,3.37757 c -0.32851,0.89277 -0.2359,1.92539 0.34004,2.77192 0.57626,0.84624 1.50329,1.31162 2.45463,1.33325 0.32854,-0.89278 0.23544,-1.92539 -0.34054,-2.77192 -0.57626,-0.84652 -1.50279,-1.31134 -2.45413,-1.33325 z m -9.96008,0.83301 c -0.40241,-0.0293 -0.80539,0.0368 -1.17567,0.19071 0.0514,0.79996 0.47473,1.56468 1.20717,2.02054 0.73272,0.45586 1.6056,0.49847 2.34612,0.19068 -0.051,-0.8 -0.47446,-1.56471 -1.20717,-2.02054 -0.36633,-0.22793 -0.76807,-0.35221 -1.17045,-0.38139 z m 0.65161,4.53048 c -0.19988,-0.006 -0.39994,0.0106 -0.59633,0.0507 -0.10329,0.79516 0.16584,1.62683 0.79738,2.21484 0.63151,0.58798 1.48043,0.79644 2.266,0.63663 0.10333,-0.79516 -0.16584,-1.62634 -0.79738,-2.21432 -0.47385,-0.44076 -1.06994,-0.6689 -1.66967,-0.68781 z m 19.34923,0.48214 c -0.24451,-0.0134 -0.49435,0.004 -0.7457,0.0512 -1.00538,0.19371 -1.79977,0.86042 -2.19675,1.72494 0.68975,0.65556 1.67453,0.9797 2.67995,0.78602 1.00538,-0.19367 1.79976,-0.86042 2.19675,-1.72498 -0.51735,-0.49163 -1.20075,-0.79685 -1.93425,-0.83714 z m -11.00141,2.55644 c -0.79819,0.0766 -1.54855,0.52419 -1.98127,1.27071 -0.43244,0.74683 -0.44771,1.62045 -0.11677,2.35077 0.79788,-0.0763 1.54855,-0.52388 1.98127,-1.27074 0.43272,-0.74652 0.44739,-1.6201 0.11677,-2.35074 z m -8.66613,3.09954 c -0.85707,-0.10121 -1.66543,0.23146 -2.20503,0.82423 0.38646,0.7027 1.09509,1.21504 1.95181,1.31622 0.85707,0.10149 1.66543,-0.23146 2.20504,-0.82427 -0.38647,-0.70266 -1.0951,-1.21465 -1.95182,-1.31618 z m 15.04869,13.04054 c 0.22793,1.67026 0.048,3.03184 -0.44182,4.14083 v 0 c 0.49008,-1.10867 0.67056,-2.47025 0.44235,-4.14083 z m -15.41819,14.85805 -2.23396,2.65564 c -0.004,0.004 -0.005,0.006 -0.007,0.009 0.004,-0.004 0.004,-0.006 0.007,-0.009 z m -16.06518,14.26732 c 0,0 0,0 0,0 -0.0197,0.024 -0.0332,0.0653 -0.0527,0.0899 0.0194,-0.0243 0.0328,-0.0663 0.0522,-0.0899 z" />
  </g>
</svg>
